<?xml version="1.0" standalone="no"?><!DOCTYPE svg PUBLIC "-//W3C//DTD SVG 1.1//EN" "http://www.w3.org/Graphics/SVG/1.1/DTD/svg11.dtd"><svg t="1636681417613" class="icon" viewBox="0 0 1024 1024" version="1.1" xmlns="http://www.w3.org/2000/svg" p-id="41897" xmlns:xlink="http://www.w3.org/1999/xlink" width="200" height="200"><defs><style type="text/css"></style></defs><path d="M981.169338 288.118996c-88.797225-12.767601-183.386269-22.015312-282.071185-27.231149l164.890847-164.890847-63.998-63.998-224.536983 224.536983c-20.991344-0.351989-42.142683-0.543983-63.454017-0.543983l0 0-255.992-255.992-63.998 63.998 194.201931 194.201931c-120.924221 4.255867-236.344614 14.527546-343.381269 29.919065-27.51914 107.708634-42.814662 226.744914-42.814662 351.893003s15.263523 244.15237 42.814662 351.893003c143.643511 20.639355 302.326552 32.094997 469.169338 32.094997s325.525827-11.455642 469.169338-32.094997c27.51914-107.708634 42.814662-226.744914 42.814662-351.893003s-15.263523-244.15237-42.814662-351.893003zM863.893003 874.596669c-107.740633 13.75957-226.744914 21.407331-351.893003 21.407331s-244.15237-7.647761-351.893003-21.407331c-20.639355-71.805756-32.094997-151.163276-32.094997-234.584669s11.455642-162.778913 32.094997-234.584669c107.708634-13.75957 226.744914-21.407331 351.893003-21.407331s244.15237 7.647761 351.861004 21.407331c20.639355 71.805756 32.126996 151.163276 32.126996 234.584669s-11.455642 162.778913-32.094997 234.584669z" p-id="41898" fill="#707070"></path></svg>