<?xml version="1.0" standalone="no"?><!DOCTYPE svg PUBLIC "-//W3C//DTD SVG 1.1//EN" "http://www.w3.org/Graphics/SVG/1.1/DTD/svg11.dtd"><svg t="1636077951304" class="icon" viewBox="0 0 1024 1024" version="1.1" xmlns="http://www.w3.org/2000/svg" p-id="3283" xmlns:xlink="http://www.w3.org/1999/xlink" width="200" height="200"><defs><style type="text/css"></style></defs><path d="M757.76 368.64H585.728c-5.12-12.288-12.288-22.528-21.504-31.744l64.512-82.944c10.24-13.312 8.192-32.768-5.12-43.008s-32.768-8.192-43.008 5.12l-71.68 92.16c-6.144 0-11.264-1.024-17.408-1.024s-11.264 1.024-16.384 1.024l-71.68-92.16c-10.24-13.312-29.696-15.36-43.008-5.12-13.312 10.24-15.36 29.696-5.12 43.008l64.512 82.944c-9.216 9.216-16.384 19.456-21.504 31.744H266.24c-33.792 0-61.44 27.648-61.44 61.44v286.72c0 33.792 27.648 61.44 61.44 61.44h491.52c33.792 0 61.44-27.648 61.44-61.44V430.08c0-33.792-27.648-61.44-61.44-61.44z m-81.92 327.68c0 11.264-9.216 20.48-20.48 20.48H286.72c-11.264 0-20.48-9.216-20.48-20.48V450.56c0-11.264 9.216-20.48 20.48-20.48h368.64c11.264 0 20.48 9.216 20.48 20.48v245.76z m71.68-102.4c-17.408 0-30.72-13.312-30.72-30.72s13.312-30.72 30.72-30.72 30.72 13.312 30.72 30.72-13.312 30.72-30.72 30.72z m0-102.4c-17.408 0-30.72-13.312-30.72-30.72s13.312-30.72 30.72-30.72 30.72 13.312 30.72 30.72-13.312 30.72-30.72 30.72z" p-id="3284"></path></svg>